inDegrees=no
num_controls=7
num_derivatives=13
num_iterations=98
num_multipliers=7
num_parameters=0
num_slacks=7
num_states=26
objective=0.447078
objective_accelerations=0.055334
objective_balance=0.003220
objective_effort=0.021640
objective_height=0.361349
objective_ligament=0.005535
solver_duration=1398.717674
status=Solve_Succeeded
success=true
DataType=double
version=3
OpenSimVersion=4.5
endheader
time	/jointset/ground_pelvis/pelvis_tilt/value	/jointset/ground_pelvis/pelvis_tx/value	/jointset/ground_pelvis/pelvis_ty/value	/jointset/hip_l/hip_flexion_l/value	/jointset/hip_l/hip_adduction_l/value	/jointset/hip_l/hip_rotation_l/value	/jointset/back/lumbar_extension/value	/jointset/patellofemoral_l/patellar_flexion_l/value	/jointset/knee_l/knee_flexion_l/value	/jointset/knee_l/knee_adduction_l/value	/jointset/knee_l/knee_rotation_l/value	/jointset/ankle_l/ankle_angle_l/value	/jointset/subtalar_l/subtalar_angle_l/value	/jointset/ground_pelvis/pelvis_tilt/speed	/jointset/ground_pelvis/pelvis_tx/speed	/jointset/ground_pelvis/pelvis_ty/speed	/jointset/hip_l/hip_flexion_l/speed	/jointset/hip_l/hip_adduction_l/speed	/jointset/hip_l/hip_rotation_l/speed	/jointset/back/lumbar_extension/speed	/jointset/patellofemoral_l/patellar_flexion_l/speed	/jointset/knee_l/knee_flexion_l/speed	/jointset/knee_l/knee_adduction_l/speed	/jointset/knee_l/knee_rotation_l/speed	/jointset/ankle_l/ankle_angle_l/speed	/jointset/subtalar_l/subtalar_angle_l/speed	/forceset/tau_hip_flexion_l	/forceset/tau_hip_adduction_l	/forceset/tau_hip_rotation_l	/forceset/tau_knee_flexion_l	/forceset/tau_ankle_angle_l	/forceset/tau_subtalar_angle_l	/forceset/tau_lumbar_extension	lambda_cid13_p0	lambda_cid13_p1	lambda_cid13_p2	lambda_cid13_p3	lambda_cid13_p4	lambda_cid13_p5	lambda_cid14_p0	/jointset/ground_pelvis/pelvis_tilt/accel	/jointset/ground_pelvis/pelvis_tx/accel	/jointset/ground_pelvis/pelvis_ty/accel	/jointset/hip_l/hip_flexion_l/accel	/jointset/hip_l/hip_adduction_l/accel	/jointset/hip_l/hip_rotation_l/accel	/jointset/back/lumbar_extension/accel	/jointset/patellofemoral_l/patellar_flexion_l/accel	/jointset/knee_l/knee_flexion_l/accel	/jointset/knee_l/knee_adduction_l/accel	/jointset/knee_l/knee_rotation_l/accel	/jointset/ankle_l/ankle_angle_l/accel	/jointset/subtalar_l/subtalar_angle_l/accel	gamma_cid13_p0	gamma_cid13_p1	gamma_cid13_p2	gamma_cid13_p3	gamma_cid13_p4	gamma_cid13_p5	gamma_cid14_p0
0	-0.03958426351030666	0.06893982010108832	0.8959532128792207	0.1955287580552426	-0.3219821938200043	-0.483887328135492	-0.1379045077516729	0.07015288079084586	0.07015288079084844	-0.1745328018689968	-0.118328793937329	-0.06701059314715049	0.003851565819905257	0	0	0	0	0	0	0	0	0	0	0	0	0	0.1064250725835999	-0.1002676838860891	-0.03130516953807396	-0.2416767266948907	0.2087436585204471	-0.0177230430887035	-0.0501034741358279	31.31168762211301	-0.7375313462142228	3.153787063605245	-6.750677746386206	-516.2304648105081	-78.63095198683685	-39.92799718694251	-4.093674138005806	-1.612693279922667	-0.926456166654098	11.75862717474518	-2.125562216900754	3.237029094544764	-2.759739968614167	10.07551771162321	10.07551771162252	0.5914859819587605	-0.8460251598403946	2.569621554550583	-0.9322785027806119	-3.148308519201371e-08	5.267906223440909e-08	1.291252429607013e-07	5.697805362693014e-09	-3.209287742813442e-08	-6.613034692872943e-08	-1.356668500853644e-08
0.01	-0.0397792661750852	0.06886018614627207	0.8959082456807672	0.1960973694380851	-0.322086706984093	-0.4837241283030993	-0.1380480324615259	0.07064239610054446	0.07064239610056573	-0.1745062279594334	-0.118364454932714	-0.06688700623779799	0.00380417222422685	-0.03881287715882991	-0.01586653639527328	-0.008964294955696743	0.1132371908767058	-0.02078798513814705	0.03256621036154156	-0.0284546869938487	0.09747080196968302	0.09747080196968547	0.00533264087300647	-0.007033814055222997	0.02460374400722923	-0.009416932796681958	0.1016092151989382	-0.1009885435206647	-0.03028045749581667	-0.2350593199397374	0.1982398918074251	-0.01251092601659901	-0.0461067804956198	28.10192748889723	-2.423169703636174	3.404272175310878	-5.384934244987194	-517.0660860129284	-82.26293292844986	-39.93796047160975	-3.746954650288875	-1.564594494358513	-0.8770508683609854	11.03349315918819	-2.03824241304696	3.255335765736196	-2.850794818357314	9.518025157149506	9.518025157150303	0.5068568051682923	-0.617284704416462	2.388705052238441	-0.9371558669454743	-7.141679613424894e-08	1.230584898288777e-07	2.015616985325927e-07	4.668945293914049e-08	-2.371417229163716e-07	-1.03540369597979e-07	-1.566123542403655e-08
0.02	-0.04035676964054414	0.0686236946924976	0.8957745085910898	0.1977837983527042	-0.3223956651497169	-0.4832374826153328	-0.1384685963920351	0.07209365217346098	0.07209365217346156	-0.1744257869080229	-0.1184674991038234	-0.06652079104268709	0.003664458260814892	-0.07650016013635275	-0.03137149979164408	-0.01775397824477312	0.2235635063556132	-0.04088900030730405	0.06468917107417979	-0.05540784413119168	0.1923481526397113	0.1923481526397182	0.01077342835387777	-0.01347663515257495	0.04852565715163253	-0.01846407354670415	0.09679335781422316	-0.1017094031552453	-0.02925574545378292	-0.2284419131845944	0.187736125094383	-0.007298808944508531	-0.04211008685543433	24.95401788834015	-4.121063850050039	3.658341543039371	-4.187565799061945	-517.0053077382183	-85.73462276227001	-39.96722678017328	-3.868555301744466	-1.540378680142096	-0.8915338333300288	11.17645209518547	-1.988168223102796	3.148379164764098	-2.459433997313059	9.556827451692238	9.556827451691962	0.6131153035316117	-0.7278265682661736	2.433255381985468	-0.8583200934486741	-1.113505070764842e-07	1.934379174233464e-07	2.739981541044842e-07	8.768110051558798e-08	-4.421905684046089e-07	-1.409503922672285e-07	-1.775578583953667e-08
0.03	-0.04130610968575748	0.06823425439335838	0.8955534766415792	0.2005595475896082	-0.3229021797425628	-0.4824328430140196	-0.1391507363777803	0.07448129483143856	0.07448129483142803	-0.1742904823881111	-0.1186331561101752	-0.06591827811104692	0.003436400498568274	-0.113180551317635	-0.04642444152951766	-0.02644198742139767	0.3310588305722164	-0.06029843137014897	0.09608031933142509	-0.08078577090878865	0.2847445039343708	0.2847445039343883	0.016268491535714	-0.01963108681310694	0.07188907220968277	-0.02707153936624418	0.09263162965085538	-0.09841038487101762	-0.02857714088913226	-0.2245719310846199	0.1834394311707285	-0.006983943305430182	-0.03860573733015661	23.61354508534096	-4.095290394846234	3.736687601012858	-3.864010135982276	-517.0228973896243	-85.11123905417097	-40.01454100535991	-3.53969981997319	-1.473916442570079	-0.8559600910380191	10.45692527258952	-1.900059878628296	3.110683792522839	-2.541814701730067	9.015661274963254	9.015661274965021	0.5149190032169882	-0.5556708612546577	2.274703759017765	-0.8506301775025689	-1.395585454619605e-07	1.973777857908087e-07	3.270435684318444e-07	1.127192743255321e-07	-6.050488089521717e-07	-1.792666407926408e-07	-2.296798406581664e-08
0.04	-0.04261663740151377	0.06769705177244864	0.8952458594740605	0.2043944206062195	-0.323599334512188	-0.4813190517028721	-0.140079624168051	0.07777982546366892	0.0777798254636692	-0.1741007838008534	-0.1188596409124236	-0.06508476719056561	0.003124534007867056	-0.1487376942450439	-0.06092396414574554	-0.03507102184644241	0.4353882622964934	-0.07901703566311342	0.1265195130413931	-0.1047574050362778	0.3745257474934471	0.3745257474934768	0.02165224182584427	-0.02564219432595369	0.09472525491985227	-0.03522581923761994	0.0884699014875106	-0.09511136658678264	-0.02789853632431404	-0.2207019489846648	0.1791427372470751	-0.006669077666345301	-0.03510138780486421	22.32984519085661	-4.079573020600035	3.816769675306653	-3.697249570601896	-516.2218738257185	-84.33589735415894	-40.07844301269679	-3.643905650969845	-1.429694855812886	-0.8797388830140668	10.54327359672023	-1.850002869126718	2.957988255308635	-2.178175467291533	9.03380590457555	9.033805904575654	0.5908527251903722	-0.6991577387291115	2.327808912409394	-0.7676829038158024	-1.675248174029676e-07	1.999477663391575e-07	3.796891674758122e-07	1.374285105320432e-07	-7.670371401195145e-07	-2.176015743872524e-07	-2.824446369025702e-08
0.05	-0.04427780376220838	0.06701746901521992	0.8948519754779152	0.2092582950316765	-0.3244801840043828	-0.4799055018894582	-0.1412405911964385	0.08196394648299409	0.08196394648299681	-0.1738575488038614	-0.1191457352796281	-0.06402537986426017	0.002733496327150125	-0.1833082193946725	-0.07491225275190959	-0.04371308665973675	0.5368870498070756	-0.09702881073496206	0.1560747024532662	-0.1272108883254317	0.461861277907592	0.4618612779076217	0.02697536238357468	-0.03151347126644478	0.1170472766215504	-0.0429077385234624	0.08361418086600048	-0.09121907437418202	-0.02706232684112331	-0.2163262527476043	0.1737176029586197	-0.00627871115147594	-0.03117184731418115	20.67371264562889	-4.046992886118592	3.911933024796967	-3.097847235360192	-515.519676997846	-83.52083181415674	-40.15711186353802	-3.335533758483007	-1.371317995243628	-0.857691388477609	9.878221295407137	-1.758216346509779	2.936870959642266	-2.245167912469621	8.517855531731868	8.517855531731815	0.5002101565452525	-0.5215826578042426	2.168653501851251	-0.7574232796408575	-1.862254223178493e-07	2.075106203635057e-07	4.175303776453251e-07	1.55367263923152e-07	-8.696982893340617e-07	-2.423198986144284e-07	-3.115404175140948e-08
0.06	-0.04627905693670292	0.06620041894548472	0.8943714206120386	0.2151221653256761	-0.3255374415513549	-0.4781998828468222	-0.1426193396882661	0.08700830859084045	0.08700830859084108	-0.1735616489141922	-0.1194886364134556	-0.06274592138037738	0.002267844085840282	-0.2167550570052502	-0.08841742664704529	-0.05240519579268114	0.6353874360048581	-0.114298646618644	0.184933358885765	-0.1483136977242874	0.5465739651976529	0.5465739651976819	0.03218522036053911	-0.03700354765073995	0.1387394864352982	-0.05014873135620036	0.0787584602444806	-0.08732678216158152	-0.02622611735793882	-0.2119505565105548	0.1682924686701578	-0.005888344636610121	-0.02724230682350024	19.06890242565916	-4.022264566455057	4.007053075586605	-2.640997197652393	-514.07836213876	-82.56586300644678	-40.24847360361523	-3.419168143159729	-1.33307191360715	-0.889747746944081	9.943593334160285	-1.701615031493387	2.818681659433794	-1.908040689231909	8.509237279758761	8.509237279758707	0.5682002090371451	-0.622917627489911	2.20184653481938	-0.6794976131948801	-2.045358938842625e-07	2.152837006394748e-07	4.547482451253873e-07	1.730209443536123e-07	-9.6986145194007e-07	-2.664648919208703e-07	-3.396396079937087e-08
0.07000000000000001	-0.04860985368352886	0.06525072750147133	0.8938034713136359	0.2219574048779018	-0.3267637170150135	-0.4762096157681255	-0.1442017451383455	0.09288768683158946	0.09288768683158753	-0.1732140467633064	-0.1198853410541487	-0.06125232140834445	0.001732149352334502	-0.249210269731797	-0.1014371217152986	-0.06120410050755214	0.7311546943165093	-0.130827291318234	0.2129865171541765	-0.167958001163155	0.6288633520306872	0.6288633520307024	0.03730710961239594	-0.04229055854579489	0.1598742379310173	-0.05691234528778581	0.07369654045931094	-0.08397838844875455	-0.02538908667289534	-0.2081269908856797	0.163016974176079	-0.004958095904956114	-0.02320148652629335	17.51569828496335	-4.218520629770544	4.111677683986298	-2.194109902722856	-512.8538731556274	-82.08300812208903	-40.35017532931651	-3.129605609804886	-1.273822419027913	-0.8780725131047363	9.317398088290451	-1.609182740918843	2.778539737951473	-1.961216502063561	8.023046573742675	8.023046573740675	0.4800568001449123	-0.4745090944646992	2.053342133375668	-0.6631970419291331	-2.125715873087704e-07	1.990031179525167e-07	4.737886749330194e-07	1.797310990786163e-07	-1.019824522397766e-06	-2.816858806363861e-07	-3.666012321023893e-08
0.08	-0.05125938411209956	0.06417335828365692	0.8931469108322153	0.2297351382149707	-0.3281514176360135	-0.4739428357412641	-0.1459743118889832	0.09957681037839798	0.09957681037839843	-0.1728160510165287	-0.1203334990585909	-0.05955056338606876	0.001131137727755113	-0.2805017933544591	-0.1139529814072505	-0.07012743239628769	0.8238861929730791	-0.1465836780869058	0.2402359485188538	-0.1863459578360069	0.7085230264103981	0.7085230264104005	0.0422639395396506	-0.04729422039890479	0.180371096483837	-0.0632121095709212	0.06863462067415174	-0.08062999473592526	-0.02455205598780383	-0.2043034252608096	0.1577414796820002	-0.004027847173300207	-0.01916066622907899	16.00783108108924	-4.421222921608863	4.215626227263336	-1.873214194885009	-510.973382586711	-81.4755442717057	-40.45973770728935	-3.186430322382851	-1.232304838346817	-0.9146331817169929	9.336441403143981	-1.547163445309749	2.657936278686919	-1.6567713360288	7.983294789094068	7.983294789094213	0.5351883441166865	-0.5662478191008894	2.074267946239575	-0.5867276835048424	-2.199443918208973e-07	1.81170686042144e-07	4.916563668263011e-07	1.857352198871392e-07	-1.066548877232989e-06	-2.963311271202293e-07	-3.934894648323e-08
0.09	-0.05421686378753288	0.06297335859875873	0.8924002947890151	0.2384265713680203	-0.3296928828435208	-0.4714077628370663	-0.1479237050306976	0.1070504719896735	0.1070504719896743	-0.1723690864777189	-0.1208308607054522	-0.05764658946717246	0.0004696126426933021	-0.3108070695843606	-0.1259582035658554	-0.07922488597935129	0.9139041602331672	-0.1615770321235999	0.266656650067594	-0.2033259730270631	0.7857732658693114	0.7857732658693075	0.04709763409860401	-0.052121112035288	0.2003210235176776	-0.0690105423665304	0.06350514002013723	-0.07710074469102382	-0.02375650332564454	-0.2012206469638801	0.1533216102318721	-0.003344434145894508	-0.01509277084755776	14.74491722638553	-4.554503511118424	4.302669284033521	-1.641463968694587	-509.3865951293736	-80.67770974477867	-40.57452208121451	-2.924524224981516	-1.171280859380544	-0.9118819718571732	8.760006665581438	-1.45563596561821	2.615770304588417	-1.687611988784265	7.530491941207397	7.530491941206378	0.4528460941210014	-0.4322911724242744	1.939947568849407	-0.5641289176043573	-2.2016581774922e-07	1.470525855052645e-07	4.970135971334638e-07	1.836731640081521e-07	-1.073610557298428e-06	-3.045601842172793e-07	-4.214978012479643e-08
